HIERARCHY
ROOT Hips
{
	OFFSET 0.000000 0.000000 0.000000
	CHANNELS 6 Xposition Yposition Zposition Zrotation Yrotation Xrotation 
	JOINT LHipJoint
	{
		OFFSET 0.000000 0.000000 0.000000
		CHANNELS 3 Zrotation Yrotation Xrotation
		JOINT LeftUpLeg
		{
			OFFSET 1.363060 -1.794630 0.839290
			CHANNELS 3 Zrotation Yrotation Xrotation
			JOINT LeftLeg
			{
				OFFSET 2.448110 -6.726130 0.000000
				CHANNELS 3 Zrotation Yrotation Xrotation
				JOINT LeftFoot
				{
					OFFSET 2.562200 -7.039590 0.000000
					CHANNELS 3 Zrotation Yrotation Xrotation
					JOINT LeftToeBase
					{
						OFFSET 0.157640 -0.433110 2.322550
						CHANNELS 3 Zrotation Yrotation Xrotation
						End Site
						{
							OFFSET 0.000000 0.000000 0.000000
						}
					}
				}
			}
		}
	}
	JOINT RHipJoint
	{
		OFFSET 0.000000 0.000000 0.000000
		CHANNELS 3 Zrotation Yrotation Xrotation
		JOINT RightUpLeg
		{
			OFFSET -1.305520 -1.794630 0.839290
			CHANNELS 3 Zrotation Yrotation Xrotation
			JOINT RightLeg
			{
				OFFSET -2.542530 -6.985550 0.000000
				CHANNELS 3 Zrotation Yrotation Xrotation
				JOINT RightFoot
				{
					OFFSET -2.568260 -7.056230 0.000000
					CHANNELS 3 Zrotation Yrotation Xrotation
					JOINT RightToeBase
					{
						OFFSET -0.164730 -0.452590 2.363150
						CHANNELS 3 Zrotation Yrotation Xrotation
						End Site
						{
							OFFSET 0.000000 0.000000 0.000000
						}
					}
				}
			}
		}
	}
}
MOTION
Frames: 13
Frame Time: 0.008333
24.082038 16.117288 2.028559 108.949143 -86.061359 -84.911440 -6.541370 1.339591 9.863217 -9.446753 -21.981257 -61.974169 -1.456248 0.945934 34.707053 2.159745 7.833148 -8.952598 0.485100 0.000000 -18.085700 12.051467 -5.866484 1.910446 3.219905 -9.793899 4.448018 0.986629 -0.902683 10.825837 0.221045 7.959081 22.741286 3.760100 0.000000 -85.685900
23.835887 16.155181 2.025358 110.262572 -85.724092 -86.457702 -6.499339 1.407196 9.764204 -10.322704 -21.841941 -60.808202 -1.476741 0.967472 35.066687 2.282523 8.355754 -9.368778 0.418500 0.000000 -17.280500 12.286000 -5.834688 1.868879 2.401839 -10.311329 3.091556 0.655521 -1.117744 13.973307 -0.000691 8.605032 25.780689 4.594500 0.000000 -85.239301
23.594379 16.193135 2.023581 111.550947 -85.381029 -88.031204 -6.473051 1.477899 9.630199 -11.278024 -21.571753 -59.518214 -1.526514 0.989602 35.354294 2.361757 8.671640 -9.828959 0.323000 -0.000000 -16.606200 12.508834 -5.740427 1.806748 1.586597 -10.896599 1.639120 0.345841 -1.280497 17.326204 -0.249154 9.008658 28.494976 5.298500 -0.000000 -83.325800
23.357118 16.230992 2.022885 112.684701 -85.026043 -89.495868 -6.453409 1.558455 9.471688 -12.298714 -21.199766 -58.097103 -1.604463 1.008607 35.547874 2.401022 8.794094 -10.332213 0.203800 -0.000000 -16.048300 12.719922 -5.585760 1.721296 0.770371 -11.553552 0.101190 0.074380 -1.400188 20.849903 -0.507059 8.998031 30.706154 5.704399 0.000000 -80.043900
23.123750 16.268850 2.023925 113.674681 -84.683894 -90.843124 -6.445069 1.647305 9.297344 -13.333158 -20.726352 -56.574431 -1.704728 1.020999 35.643856 2.403099 8.729129 -10.880748 0.066300 -0.000000 -15.591399 12.905571 -5.385407 1.620529 0.007317 -12.234923 -1.522594 -0.149212 -1.494858 24.497729 -0.760184 8.387129 32.260782 5.639500 -0.000001 -75.717200
22.893369 16.306940 2.026653 114.510800 -84.358425 -92.049173 -6.445179 1.745716 9.117275 -14.355678 -20.169204 -54.964972 -1.824077 1.022461 35.619991 2.375741 8.508296 -11.466342 -0.080901 0.000000 -15.223100 13.063442 -5.152314 1.507355 -0.686610 -12.923678 -3.240772 -0.326860 -1.584850 28.230934 -0.998839 7.102782 33.034021 5.026500 -0.000001 -70.828700
22.665277 16.345519 2.030900 115.212064 -84.051372 -93.115964 -6.450188 1.854339 8.940747 -15.346165 -19.546271 -53.288520 -1.959422 1.008826 35.453646 2.328063 8.171022 -12.076368 -0.228600 -0.000000 -14.934100 13.194035 -4.898247 1.387697 -1.297714 -13.595062 -5.065924 -0.467378 -1.687254 32.007245 -1.218334 5.182935 32.941509 3.903000 0.000000 -65.855200
22.438824 16.384925 2.036767 115.848425 -83.770026 -94.094176 -6.461002 1.970978 8.773947 -16.281025 -18.864339 -51.574520 -2.106676 0.976855 35.132221 2.268309 7.754216 -12.698564 -0.369800 0.000001 -14.714700 13.295195 -4.635010 1.272206 -1.798774 -14.207878 -7.012163 -0.581416 -1.813390 35.779228 -1.416789 2.767590 31.945634 2.416100 0.000000 -61.152300
22.213606 16.425420 2.044106 116.479086 -83.516155 -95.030783 -6.476925 2.093243 8.620485 -17.147140 -18.131773 -49.848899 -2.262421 0.924294 34.646049 2.204190 7.295799 -13.318005 -0.499300 0.000000 -14.555100 13.367873 -4.370456 1.170312 -2.174368 -14.728775 -9.090893 -0.678293 -1.968301 39.498581 -1.592662 0.080437 30.052553 0.793000 -0.000000 -56.828400
21.989205 16.467147 2.052686 117.158866 -83.287036 -95.968651 -6.496017 2.219201 8.481708 -17.941572 -17.358040 -48.130659 -2.423784 0.849671 33.989655 2.142359 6.831416 -13.919890 -0.614299 0.000000 -14.445500 13.415393 -4.109587 1.090827 -2.419819 -15.130492 -11.305609 -0.763843 -2.151036 43.112847 -1.744459 -2.628125 27.316866 -0.721300 0.000000 -52.787101
21.765742 16.510158 2.062418 117.942200 -83.083753 -96.957553 -6.519362 2.345203 8.355276 -18.659381 -16.546061 -46.437781 -2.587291 0.752949 33.169214 2.086457 6.384919 -14.491110 -0.714200 0.000000 -14.376100 13.438908 -3.855896 1.042074 -2.528922 -15.385648 -13.650388 -0.839510 -2.355849 46.564955 -1.871590 -5.139674 23.845568 -1.925800 -0.000000 -48.806000
21.543063 16.554337 2.073026 118.850002 -82.901906 -98.019826 -6.545397 2.468408 8.237116 -19.304546 -15.704749 -44.774835 -2.750291 0.634803 32.191922 2.038763 5.975768 -15.018554 -0.799600 0.000000 -14.337500 13.442200 -3.608863 1.029034 -2.512144 -15.478128 -16.106506 -0.902856 -2.573888 49.798609 -1.974499 -7.291213 19.789706 -2.696900 -0.000000 -44.621800
21.321431 16.599402 2.084368 119.895594 -82.740029 -99.173515 -6.574933 2.585371 8.121359 -19.878140 -14.840492 -43.139797 -2.909768 0.496856 31.071838 1.998802 5.611442 -15.490639 -0.871599 -0.000000 -14.321800 13.426867 -3.367326 1.055073 -2.381432 -15.394756 -18.643945 -0.948833 -2.794837 52.760074 -2.055424 -8.994571 15.339004 -3.004800 0.000000 -40.018300
